# 3ds Max Wavefront OBJ Exporter v0.97b - (c)2007 guruware
# File Created: 27.12.2021 05:34:13

mtllib arrow.mtl

#
# object Mesh_0009
#

v  0.0000 -88.0859 -10.0586
v  0.0000 -0.0000 169.9219
v  16.2109 -62.3047 -10.0586
v  -16.3086 62.2070 -10.0586
v  0.0000 87.9883 -10.0586
v  0.0000 -0.0000 19.9219
v  -16.3086 -62.3047 -10.0586
v  16.2109 62.2070 -10.0586
v  10.2539 0.0000 -118.8477
v  6.0547 30.0781 -118.8476
v  0.0000 39.9414 -118.8476
v  22.9492 0.0000 -10.0586
v  -23.0469 0.0000 -10.0586
v  3.6133 -15.1367 25.0000
v  6.0547 -0.0000 25.0000
v  3.6133 15.0391 25.0000
v  0.0000 19.9219 25.0000
v  0.0000 -40.0390 -118.8477
v  0.0000 -20.0195 25.0000
v  6.0547 -30.1758 -118.8477
v  -6.1523 30.0781 -118.8476
v  -3.7109 15.0391 25.0000
v  -10.3516 0.0000 -118.8477
v  -6.1523 -0.0000 25.0000
v  -3.7109 -15.1367 25.0000
v  -6.1523 -30.1758 -118.8477
v  0.0000 0.0000 -118.8477
# 27 vertices

vn -0.8192 0.5151 -0.2521
vn 0.8176 -0.5172 -0.2529
vn -0.4542 0.2873 0.8433
vn -0.4539 -0.2871 0.8435
vn 0.4564 0.2870 0.8422
vn 0.4560 -0.2867 0.8425
vn -0.0000 -0.0000 1.0000
vn -0.8193 -0.5151 -0.2518
vn -0.9112 -0.3571 -0.2055
vn -0.9835 -0.0964 -0.1530
vn -0.9920 -0.0001 -0.1265
vn -0.9863 0.1067 -0.1258
vn 0.8176 0.5172 -0.2531
vn 0.9104 0.3584 -0.2066
vn 0.9833 0.0970 -0.1538
vn 0.9919 -0.0001 -0.1270
vn 0.9862 -0.1068 -0.1263
vn -0.7899 0.0856 0.6072
vn -0.7928 0.0001 0.6095
vn -0.7928 0.0000 0.6095
vn -0.7899 -0.0854 0.6072
vn 0.7912 -0.0856 0.6056
vn 0.7941 0.0001 0.6078
vn 0.7941 0.0000 0.6078
vn 0.7911 0.0857 0.6056
vn -0.9868 0.1592 -0.0288
vn -0.9996 -0.0005 -0.0292
vn -0.9922 -0.1211 -0.0310
vn -0.9259 -0.3740 -0.0526
vn -0.9353 -0.3496 -0.0543
vn -0.8040 -0.5899 -0.0755
vn -0.8500 -0.5218 -0.0726
vn -0.8500 0.5218 -0.0726
vn -0.8040 0.5899 -0.0755
vn -0.9354 0.3494 -0.0543
vn -0.8360 0.5442 -0.0711
vn -0.9900 0.1378 -0.0312
vn 0.8462 -0.5278 -0.0735
vn 0.7965 -0.5998 -0.0764
vn 0.9340 -0.3531 -0.0548
vn 0.9236 -0.3797 -0.0531
vn 0.9922 -0.1211 -0.0310
vn 0.9996 -0.0005 -0.0292
vn 0.9868 0.1592 -0.0288
vn 0.9900 0.1378 -0.0312
vn 0.9340 0.3530 -0.0548
vn 0.7938 0.6033 -0.0765
vn 0.7965 0.5998 -0.0764
vn 0.8462 0.5278 -0.0735
vn 0.0000 -0.0000 1.0000
# 50 vertex normals

vt 0.0889 -0.8447 0.0000
vt 0.0889 -0.8662 0.0000
vt 0.1035 -0.8447 0.0000
vt 0.0889 -0.8496 0.0000
vt 0.1006 -0.8262 0.0000
vt 0.0957 -0.8262 0.0000
vt 0.0889 -0.8262 0.0000
vt 0.1094 -0.8447 0.0000
vt 0.0918 -0.8496 0.0000
vt 0.0947 -0.8496 0.0000
# 10 texture coords

g Mesh_0009
usemtl red_png
s 1
f 1/1/1 2/2/1 3/3/1 
s 2
f 2/2/2 4/3/2 5/1/2 
s 3
f 6/4/3 5/1/3 4/3/3 
s 4
f 1/1/4 6/4/4 7/3/4 
s 5
f 6/4/5 8/3/5 5/1/5 
s 6
f 1/1/6 3/3/6 6/4/6 
s 7
f 9/5/7 10/6/7 11/7/7 
s 8
f 5/1/8 8/3/9 2/2/10 
s 9
f 8/3/9 12/8/11 2/2/10 
s 10
f 2/2/10 12/8/11 3/3/12 
s 11
f 1/1/13 7/3/14 2/2/15 
s 12
f 7/3/14 13/8/16 2/2/15 
s 13
f 2/2/15 13/8/16 4/3/17 
s 14
f 4/3/18 13/8/19 6/4/20 
s 15
f 13/8/19 7/3/21 6/4/20 
s 16
f 3/3/22 12/8/23 6/4/24 
s 17
f 12/8/23 8/3/25 6/4/24 
s 18
f 14/9/26 15/10/27 9/5/28 
s 19
f 15/10/27 16/9/29 9/5/28 
s 20
f 9/5/28 16/9/29 10/6/30 
s 21
f 16/9/29 17/4/31 10/6/30 
s 22
f 10/6/30 17/4/31 11/7/32 
s 23
f 18/7/33 19/4/34 20/6/35 
s 24
f 19/4/34 14/9/36 20/6/35 
s 25
f 20/6/35 14/9/36 9/5/37 
s 26
f 11/7/38 17/4/39 21/6/40 
s 27
f 17/4/39 22/9/41 21/6/40 
s 28
f 21/6/40 22/9/41 23/5/42 
s 29
f 22/9/41 24/10/43 23/5/42 
s 30
f 23/5/42 24/10/43 25/9/44 
s 31
f 23/5/45 25/9/45 26/6/46 
s 32
f 25/9/47 19/4/48 26/6/46 
s 33
f 26/6/46 19/4/48 18/7/49 
s 34
f 21/6/50 23/5/50 11/7/50 
s 35
f 23/5/50 27/7/50 11/7/50 
s 36
f 11/7/50 27/7/50 9/5/50 
s 37
f 27/7/50 18/7/50 9/5/50 
s 38
f 9/5/50 18/7/50 20/6/50 
s 39
f 27/7/50 23/5/7 18/7/7 
s 40
f 23/5/7 26/6/7 18/7/7 
# 0 polygons - 40 triangles

